HIERARCHY
ROOT Hips
{
    OFFSET 0.000000 0.000000 0.000000
    CHANNELS 6 Xposition Yposition Zposition Zrotation Xrotation Yrotation
    JOINT Spine
    {
        OFFSET -0.000000 14.517291 0.000000
        CHANNELS 3 Zrotation Xrotation Yrotation
        JOINT Spine1
        {
            OFFSET -0.000000 37.558300 0.000000
            CHANNELS 3 Zrotation Xrotation Yrotation
            JOINT Neck
            {
                OFFSET -0.000000 37.404057 3.400369
                CHANNELS 3 Zrotation Xrotation Yrotation
                JOINT Head
                {
                    OFFSET -0.000000 24.785618 -3.540803
                    CHANNELS 3 Zrotation Xrotation Yrotation
                    End Site
                    {
                        OFFSET -0.000000 35.408028 0.000000
                    }
                }
            }
            JOINT LeftShoulder
            {
                OFFSET 6.992933 33.973492 -0.192664
                CHANNELS 3 Zrotation Xrotation Yrotation
                JOINT LeftArm
                {
                    OFFSET 21.527611 0.000000 0.000000
                    CHANNELS 3 Zrotation Xrotation Yrotation
                    JOINT LeftForeArm
                    {
                        OFFSET 56.353916 0.000000 0.000000
                        CHANNELS 3 Zrotation Xrotation Yrotation
                        JOINT LeftHand
                        {
                            OFFSET 47.774071 0.000000 0.000000
                            CHANNELS 3 Zrotation Xrotation Yrotation
                            End Site
                            {
                                OFFSET 26.556021 0.000000 0.000000
                            }
                        }
                    }
                }
            }
            JOINT RightShoulder
            {
                OFFSET -7.065357 33.973492 -0.192664
                CHANNELS 3 Zrotation Xrotation Yrotation
                JOINT RightArm
                {
                    OFFSET -21.527611 0.000000 0.000000
                    CHANNELS 3 Zrotation Xrotation Yrotation
                    JOINT RightForeArm
                    {
                        OFFSET -56.353916 0.000000 0.000000
                        CHANNELS 3 Zrotation Xrotation Yrotation
                        JOINT RightHand
                        {
                            OFFSET -47.774071 0.000000 0.000000
                            CHANNELS 3 Zrotation Xrotation Yrotation
                            End Site
                            {
                                OFFSET -26.556021 0.000000 0.000000
                            }
                        }
                    }
                }
            }
        }
    }
    JOINT LeftUpLeg
    {
        OFFSET 17.704014 0.000000 0.000000
        CHANNELS 3 Zrotation Xrotation Yrotation
        JOINT LeftLeg
        {
            OFFSET -0.000000 -81.181816 0.000000
            CHANNELS 3 Zrotation Xrotation Yrotation
            JOINT LeftFoot
            {
                OFFSET -0.000000 -62.821102 0.000000
                CHANNELS 3 Zrotation Xrotation Yrotation
                JOINT LeftToeBase
                {
                    OFFSET -0.000000 -11.507608 26.556021
                    CHANNELS 3 Zrotation Xrotation Yrotation
                    End Site
                    {
                        OFFSET -0.000000 0.000000 7.081605
                    }
                }
            }
        }
    }
    JOINT RightUpLeg
    {
        OFFSET -17.704014 0.000000 0.000000
        CHANNELS 3 Zrotation Xrotation Yrotation
        JOINT RightLeg
        {
            OFFSET -0.000000 -81.181816 0.000000
            CHANNELS 3 Zrotation Xrotation Yrotation
            JOINT RightFoot
            {
                OFFSET -0.000000 -62.821102 0.000000
                CHANNELS 3 Zrotation Xrotation Yrotation
                JOINT RightToeBase
                {
                    OFFSET -0.000000 -11.507608 26.556021
                    CHANNELS 3 Zrotation Xrotation Yrotation
                    End Site
                    {
                        OFFSET -0.000000 0.000000 7.081605
                    }
                }
            }
        }
    }
}
MOTION
Frames:    5
Frame Time:    0.008333
-10.933676    151.780914    -12.006988    0.266554    1.336549    23.375864    -1.360246    -0.364814    8.910166    -4.444542    1.353741    3.024570    -6.291546    -3.111799    -14.986705    18.328564    2.972018    -12.396546    1.065888    1.671745    -7.156758    -42.352570    5.549121    -63.029995    55.642540    -53.941868    -31.062952    -0.967101    -42.709763    -7.260091    -13.063817    2.269340    6.452259    21.854773    -19.232809    53.680653    -8.518476    -22.210499    12.860438    12.103724    -17.064199    40.668301    1.111390    -34.265789    -27.807253    -10.167868    21.419123    -22.629444    -10.803793    3.712984    29.759493    0.000000    0.000000    0.000000    3.946175    11.456139    -14.195353    3.079610    23.446918    -1.034995    -3.284973    -30.675800    -6.786997    0.000000    0.000000    0.000000    
-10.944991    151.772903    -11.996530    0.273001    1.324837    23.412815    -1.366537    -0.369043    8.936161    -4.433405    1.352308    3.033056    -6.395788    -3.119977    -15.039036    18.504572    3.068070    -12.427613    1.015637    1.703540    -7.116258    -42.488205    5.455608    -62.843525    55.967049    -53.921436    -30.689194    -0.732271    -42.770332    -6.998832    -13.072132    2.197313    6.417542    21.860229    -19.201706    53.633892    -8.523853    -22.243616    12.823581    12.152897    -17.081057    40.683708    1.102464    -34.256306    -27.812193    -10.173929    21.421034    -22.640200    -10.796872    3.710593    29.740669    0.000000    0.000000    0.000000    3.962786    11.485992    -14.213192    3.089600    23.419746    -1.035047    -3.306270    -30.675615    -6.827293    0.000000    0.000000    0.000000    
-10.958571    151.765717    -11.988904    0.278829    1.308134    23.451122    -1.371737    -0.368055    8.958547    -4.423573    1.360860    3.040751    -6.403411    -3.099462    -15.071466    18.535616    3.054255    -12.455710    0.968985    1.737976    -7.080987    -42.571762    5.403521    -62.676502    56.346485    -53.897278    -30.267527    -0.360177    -42.839169    -6.727281    -13.097053    2.066177    6.358684    21.892504    -19.098236    53.594383    -8.551991    -22.273182    12.788412    12.159324    -17.109280    40.679417    1.091416    -34.242817    -27.814882    -10.172288    21.418314    -22.637890    -10.791732    3.721706    29.708191    0.000000    0.000000    0.000000    3.980940    11.517942    -14.229910    3.091995    23.397888    -1.029592    -3.326810    -30.680273    -6.848311    0.000000    0.000000    0.000000    
-10.971348    151.757507    -11.981389    0.279325    1.296298    23.496380    -1.371763    -0.367501    8.976981    -4.417033    1.358846    3.046729    -6.323099    -3.046088    -15.081251    18.427525    2.945923    -12.478358    0.920730    1.762068    -7.055430    -42.732967    5.316110    -62.499809    56.671188    -53.895660    -30.005268    -0.180027    -42.874348    -6.180689    -13.084803    2.229541    6.394873    21.809563    -19.285700    53.530937    -8.565106    -22.303183    12.795589    12.176103    -17.135170    40.654919    1.079750    -34.240242    -27.831505    -10.177606    21.422024    -22.652897    -10.793141    3.725530    29.701241    0.000000    0.000000    0.000000    4.004077    11.542459    -14.252179    3.098156    23.374126    -1.034676    -3.339735    -30.682726    -6.865158    0.000000    0.000000    0.000000    
-10.981722    151.750488    -11.975191    0.283930    1.279734    23.549994    -1.373041    -0.363324    8.983669    -4.415521    1.353868    3.048738    -6.324172    -3.016048    -15.111033    18.457991    2.937972    -12.506363    0.880988    1.792335    -7.042276    -42.909901    5.216736    -62.315369    56.777573    -53.836945    -29.880318    0.120249    -42.839737    -5.973629    -13.083647    2.226905    6.380083    21.783840    -19.290512    53.484310    -8.596000    -22.316584    12.774531    12.182616    -17.144001    40.662754    1.056373    -34.231331    -27.867605    -10.179193    21.425186    -22.652910    -10.793907    3.721607    29.683155    0.000000    0.000000    0.000000    4.027049    11.579751    -14.281748    3.101097    23.336063    -1.040454    -3.357449    -30.689556    -6.876365    0.000000    0.000000    0.000000    
